<svg width="80" height="80" viewBox="0 0 80 80" fill="none" xmlns="http://www.w3.org/2000/svg">
<path d="M1.69438 39.5211C1.69252 46.2427 3.4488 52.8058 6.78833 58.5906L1.375 78.3556L21.602 73.052C27.1965 76.0976 33.4647 77.6935 39.8345 77.6939H39.8513C60.8792 77.6939 77.9964 60.5829 78.0054 39.5512C78.0094 29.3599 74.0441 19.7767 66.8398 12.5667C59.6367 5.35743 50.0569 1.38502 39.8497 1.38037C18.8193 1.38037 1.70337 18.4904 1.69469 39.5211" fill="url(#paint0_linear_1153_2607)"/>
<path d="M0.334375 39.6399C0.332188 46.6264 2.16562 53.4468 5.65125 59.4586L0 80L21.1159 74.4881C26.9341 77.6462 33.4847 79.3112 40.1503 79.3137H40.1675C62.12 79.3137 79.9906 61.5284 80 39.6716C80.0038 29.0791 75.8637 19.1184 68.3437 11.6254C60.8228 4.13336 50.8228 0.00435549 40.1675 0C18.2112 0 0.343125 17.7828 0.334375 39.6399ZM12.9094 58.4232L12.1209 57.1773C8.80656 51.9308 7.05719 45.8679 7.05969 39.6424C7.06687 21.4753 21.9181 6.695 40.18 6.695C49.0238 6.69874 57.335 10.1309 63.5862 16.358C69.8372 22.5857 73.2769 30.8642 73.2747 39.6691C73.2666 57.8362 58.415 72.6184 40.1675 72.6184H40.1544C34.2128 72.6153 28.3856 71.0268 23.3037 68.0249L22.0944 67.3109L9.56375 70.5816L12.9094 58.4229V58.4232Z" fill="url(#paint1_linear_1153_2607)"/>
<path d="M29.9781 22.9915C29.2382 21.3472 28.4596 21.314 27.7561 21.2852C27.1799 21.2604 26.5213 21.2622 25.8634 21.2622C25.2048 21.2622 24.1347 21.51 23.2302 22.4976C22.3248 23.4861 19.7734 25.875 19.7734 30.7336C19.7734 35.5925 23.3124 40.288 23.8057 40.9475C24.2996 41.6058 30.6376 51.8954 40.6755 55.8539C49.0178 59.1435 50.7155 58.4892 52.526 58.3243C54.3368 58.1599 58.3691 55.936 59.1917 53.63C60.015 51.3243 60.015 49.3478 59.7682 48.9348C59.5213 48.5233 58.8627 48.2762 57.8751 47.7825C56.8872 47.2886 52.032 44.8994 51.1269 44.5698C50.2215 44.2405 49.5632 44.0762 48.9046 45.065C48.246 46.0523 46.3548 48.2762 45.7784 48.9348C45.2026 49.595 44.6261 49.6771 43.6389 49.1832C42.6506 48.6877 39.4702 47.6461 35.6968 44.2821C32.761 41.6644 30.779 38.4319 30.2029 37.443C29.6268 36.4557 30.1412 35.9205 30.6364 35.4284C31.0801 34.986 31.6243 34.2753 32.1186 33.6988C32.611 33.1221 32.7753 32.7106 33.1046 32.052C33.4342 31.3928 33.2693 30.816 33.0227 30.3221C32.7753 29.8281 30.8562 24.9441 29.9781 22.9915Z" fill="white"/>
<defs>
<linearGradient id="paint0_linear_1153_2607" x1="3832.89" y1="7698.9" x2="3832.89" y2="1.38037" gradientUnits="userSpaceOnUse">
<stop stop-color="#1FAF38"/>
<stop offset="1" stop-color="#60D669"/>
</linearGradient>
<linearGradient id="paint1_linear_1153_2607" x1="4000" y1="8000" x2="4000" y2="0" gradientUnits="userSpaceOnUse">
<stop stop-color="#F9F9F9"/>
<stop offset="1" stop-color="white"/>
</linearGradient>
</defs>
</svg>
