<svg width="227" height="72" viewBox="0 0 227 72" fill="none" xmlns="http://www.w3.org/2000/svg">
<path d="M100.84 35.36C100.84 34.32 101.024 33.304 101.392 32.312C101.76 31.304 102.296 30.392 103 29.576C103.72 28.744 104.592 28.088 105.616 27.608C106.64 27.112 107.8 26.864 109.096 26.864C110.632 26.864 111.96 27.216 113.08 27.92C114.2 28.608 115.032 29.496 115.576 30.584L113.464 32C113.144 31.312 112.736 30.768 112.24 30.368C111.76 29.968 111.232 29.688 110.656 29.528C110.096 29.368 109.544 29.288 109 29.288C108.104 29.288 107.32 29.472 106.648 29.84C105.976 30.192 105.408 30.664 104.944 31.256C104.496 31.848 104.152 32.512 103.912 33.248C103.688 33.984 103.576 34.72 103.576 35.456C103.576 36.272 103.712 37.064 103.984 37.832C104.256 38.584 104.632 39.256 105.112 39.848C105.608 40.424 106.192 40.88 106.864 41.216C107.536 41.552 108.272 41.72 109.072 41.72C109.616 41.72 110.184 41.624 110.776 41.432C111.368 41.24 111.912 40.944 112.408 40.544C112.92 40.128 113.32 39.584 113.608 38.912L115.84 40.184C115.488 41.032 114.936 41.752 114.184 42.344C113.448 42.936 112.616 43.384 111.688 43.688C110.776 43.992 109.872 44.144 108.976 44.144C107.776 44.144 106.68 43.896 105.688 43.4C104.696 42.888 103.84 42.216 103.12 41.384C102.4 40.536 101.84 39.592 101.44 38.552C101.04 37.496 100.84 36.432 100.84 35.36Z" fill="#E5B2FF"/>
<path d="M159 26.96L164.136 40.712L169.248 26.96H172.104L165.408 44H162.864L156.144 26.96H159Z" fill="#E5B2FF"/>
<path d="M118.56 37.94C118.56 37.2733 118.747 36.6933 119.12 36.2C119.507 35.6933 120.033 35.3067 120.7 35.04C121.367 34.76 122.14 34.62 123.02 34.62C123.487 34.62 123.96 34.6533 124.44 34.72C124.933 34.7867 125.367 34.8933 125.74 35.04V34.38C125.74 33.6467 125.52 33.0733 125.08 32.66C124.64 32.2467 124.007 32.04 123.18 32.04C122.593 32.04 122.04 32.1467 121.52 32.36C121 32.56 120.447 32.8467 119.86 33.22L119.12 31.74C119.813 31.2733 120.507 30.9267 121.2 30.7C121.907 30.4733 122.647 30.36 123.42 30.36C124.82 30.36 125.92 30.7333 126.72 31.48C127.533 32.2133 127.94 33.26 127.94 34.62V38.52C127.94 38.7733 127.98 38.9533 128.06 39.06C128.153 39.1667 128.307 39.2267 128.52 39.24V41C128.32 41.04 128.14 41.0667 127.98 41.08C127.82 41.0933 127.687 41.1 127.58 41.1C127.113 41.1 126.76 40.9867 126.52 40.76C126.28 40.5333 126.14 40.2667 126.1 39.96L126.04 39.36C125.587 39.9467 125.007 40.4 124.3 40.72C123.593 41.04 122.88 41.2 122.16 41.2C121.467 41.2 120.847 41.06 120.3 40.78C119.753 40.4867 119.327 40.0933 119.02 39.6C118.713 39.1067 118.56 38.5533 118.56 37.94ZM125.22 38.58C125.38 38.4067 125.507 38.2333 125.6 38.06C125.693 37.8867 125.74 37.7333 125.74 37.6V36.4C125.367 36.2533 124.973 36.1467 124.56 36.08C124.147 36 123.74 35.96 123.34 35.96C122.54 35.96 121.887 36.12 121.38 36.44C120.887 36.76 120.64 37.2 120.64 37.76C120.64 38.0667 120.72 38.36 120.88 38.64C121.053 38.92 121.293 39.1467 121.6 39.32C121.92 39.4933 122.313 39.58 122.78 39.58C123.26 39.58 123.72 39.4867 124.16 39.3C124.6 39.1133 124.953 38.8733 125.22 38.58ZM134.329 41.2C133.449 41.2 132.616 41.06 131.829 40.78C131.042 40.4867 130.369 40.0533 129.809 39.48L130.629 38C131.229 38.5333 131.829 38.92 132.429 39.16C133.042 39.4 133.649 39.52 134.249 39.52C134.862 39.52 135.362 39.4067 135.749 39.18C136.136 38.94 136.329 38.5933 136.329 38.14C136.329 37.8067 136.229 37.56 136.029 37.4C135.829 37.24 135.536 37.1 135.149 36.98C134.776 36.86 134.322 36.7267 133.789 36.58C133.042 36.3533 132.416 36.12 131.909 35.88C131.402 35.6267 131.022 35.32 130.769 34.96C130.516 34.6 130.389 34.14 130.389 33.58C130.389 32.9 130.562 32.32 130.909 31.84C131.256 31.36 131.736 30.9933 132.349 30.74C132.976 30.4867 133.696 30.36 134.509 30.36C135.269 30.36 135.969 30.48 136.609 30.72C137.262 30.9467 137.836 31.3067 138.329 31.8L137.389 33.26C136.922 32.8333 136.442 32.52 135.949 32.32C135.469 32.12 134.949 32.02 134.389 32.02C134.069 32.02 133.762 32.06 133.469 32.14C133.176 32.2067 132.929 32.34 132.729 32.54C132.542 32.7267 132.449 32.9933 132.449 33.34C132.449 33.62 132.529 33.8467 132.689 34.02C132.849 34.1933 133.089 34.34 133.409 34.46C133.729 34.58 134.122 34.7133 134.589 34.86C135.402 35.1 136.096 35.34 136.669 35.58C137.242 35.8067 137.682 36.1067 137.989 36.48C138.309 36.84 138.469 37.34 138.469 37.98C138.469 38.9933 138.089 39.7867 137.329 40.36C136.582 40.92 135.582 41.2 134.329 41.2ZM139.673 37.94C139.673 37.2733 139.86 36.6933 140.233 36.2C140.62 35.6933 141.147 35.3067 141.813 35.04C142.48 34.76 143.253 34.62 144.133 34.62C144.6 34.62 145.073 34.6533 145.553 34.72C146.047 34.7867 146.48 34.8933 146.853 35.04V34.38C146.853 33.6467 146.633 33.0733 146.193 32.66C145.753 32.2467 145.12 32.04 144.293 32.04C143.707 32.04 143.153 32.1467 142.633 32.36C142.113 32.56 141.56 32.8467 140.973 33.22L140.233 31.74C140.927 31.2733 141.62 30.9267 142.313 30.7C143.02 30.4733 143.76 30.36 144.533 30.36C145.933 30.36 147.033 30.7333 147.833 31.48C148.647 32.2133 149.053 33.26 149.053 34.62V38.52C149.053 38.7733 149.093 38.9533 149.173 39.06C149.267 39.1667 149.42 39.2267 149.633 39.24V41C149.433 41.04 149.253 41.0667 149.093 41.08C148.933 41.0933 148.8 41.1 148.693 41.1C148.227 41.1 147.873 40.9867 147.633 40.76C147.393 40.5333 147.253 40.2667 147.213 39.96L147.153 39.36C146.7 39.9467 146.12 40.4 145.413 40.72C144.707 41.04 143.993 41.2 143.273 41.2C142.58 41.2 141.96 41.06 141.413 40.78C140.867 40.4867 140.44 40.0933 140.133 39.6C139.827 39.1067 139.673 38.5533 139.673 37.94ZM146.333 38.58C146.493 38.4067 146.62 38.2333 146.713 38.06C146.807 37.8867 146.853 37.7333 146.853 37.6V36.4C146.48 36.2533 146.087 36.1467 145.673 36.08C145.26 36 144.853 35.96 144.453 35.96C143.653 35.96 143 36.12 142.493 36.44C142 36.76 141.753 37.2 141.753 37.76C141.753 38.0667 141.833 38.36 141.993 38.64C142.167 38.92 142.407 39.1467 142.713 39.32C143.033 39.4933 143.427 39.58 143.893 39.58C144.373 39.58 144.833 39.4867 145.273 39.3C145.713 39.1133 146.067 38.8733 146.333 38.58Z" fill="#E5B2FF"/>
<path d="M174.32 41V30.54H176.52V41H174.32ZM174.32 28.82V26.4H176.52V28.82H174.32ZM183.864 41.2C183.037 41.2 182.297 41.06 181.644 40.78C180.99 40.4867 180.424 40.0867 179.944 39.58C179.477 39.0733 179.117 38.5 178.864 37.86C178.61 37.2067 178.484 36.5133 178.484 35.78C178.484 35.0467 178.61 34.3533 178.864 33.7C179.117 33.0467 179.477 32.4733 179.944 31.98C180.424 31.4733 180.99 31.08 181.644 30.8C182.31 30.5067 183.05 30.36 183.864 30.36C184.677 30.36 185.41 30.5067 186.064 30.8C186.73 31.08 187.297 31.4733 187.764 31.98C188.244 32.4733 188.61 33.0467 188.864 33.7C189.117 34.3533 189.244 35.0467 189.244 35.78C189.244 36.5133 189.117 37.2067 188.864 37.86C188.61 38.5 188.244 39.0733 187.764 39.58C187.297 40.0867 186.73 40.4867 186.064 40.78C185.41 41.06 184.677 41.2 183.864 41.2ZM180.744 35.8C180.744 36.4667 180.884 37.0667 181.164 37.6C181.444 38.1333 181.817 38.5533 182.284 38.86C182.75 39.1667 183.277 39.32 183.864 39.32C184.437 39.32 184.957 39.1667 185.424 38.86C185.904 38.54 186.284 38.1133 186.564 37.58C186.844 37.0333 186.984 36.4333 186.984 35.78C186.984 35.1133 186.844 34.5133 186.564 33.98C186.284 33.4467 185.904 33.0267 185.424 32.72C184.957 32.4 184.437 32.24 183.864 32.24C183.277 32.24 182.75 32.4 182.284 32.72C181.817 33.04 181.444 33.4667 181.164 34C180.884 34.52 180.744 35.12 180.744 35.8ZM191.215 26.4H193.415V37.98C193.415 38.5133 193.495 38.8533 193.655 39C193.815 39.1467 194.015 39.22 194.255 39.22C194.522 39.22 194.768 39.1933 194.995 39.14C195.235 39.0867 195.442 39.02 195.615 38.94L195.935 40.68C195.615 40.8133 195.235 40.9267 194.795 41.02C194.355 41.1133 193.962 41.16 193.615 41.16C192.868 41.16 192.282 40.9533 191.855 40.54C191.428 40.1133 191.215 39.5267 191.215 38.78V26.4ZM201.951 41.2C201.137 41.2 200.397 41.06 199.731 40.78C199.077 40.4867 198.511 40.0933 198.031 39.6C197.551 39.0933 197.177 38.52 196.911 37.88C196.657 37.2267 196.531 36.5333 196.531 35.8C196.531 34.8133 196.757 33.9133 197.211 33.1C197.664 32.2733 198.297 31.6133 199.111 31.12C199.924 30.6133 200.877 30.36 201.971 30.36C203.064 30.36 204.004 30.6133 204.791 31.12C205.591 31.6133 206.211 32.2667 206.651 33.08C207.091 33.8933 207.311 34.7667 207.311 35.7C207.311 35.86 207.304 36.0133 207.291 36.16C207.277 36.2933 207.264 36.4067 207.251 36.5H198.871C198.911 37.1133 199.077 37.6533 199.371 38.12C199.677 38.5733 200.064 38.9333 200.531 39.2C200.997 39.4533 201.497 39.58 202.031 39.58C202.617 39.58 203.171 39.4333 203.691 39.14C204.224 38.8467 204.584 38.46 204.771 37.98L206.651 38.52C206.424 39.0267 206.077 39.4867 205.611 39.9C205.157 40.3 204.617 40.62 203.991 40.86C203.364 41.0867 202.684 41.2 201.951 41.2ZM198.811 35.04H205.131C205.091 34.44 204.917 33.9133 204.611 33.46C204.317 32.9933 203.937 32.6333 203.471 32.38C203.017 32.1133 202.511 31.98 201.951 31.98C201.404 31.98 200.897 32.1133 200.431 32.38C199.977 32.6333 199.604 32.9933 199.311 33.46C199.017 33.9133 198.851 34.44 198.811 35.04ZM214.828 40.46C214.641 40.5533 214.408 40.6533 214.128 40.76C213.848 40.8667 213.528 40.96 213.168 41.04C212.821 41.12 212.461 41.16 212.088 41.16C211.634 41.16 211.214 41.08 210.828 40.92C210.441 40.76 210.128 40.5067 209.888 40.16C209.661 39.8 209.548 39.34 209.548 38.78V32.24H208.168V30.54H209.548V27.1H211.748V30.54H214.028V32.24H211.748V38.08C211.774 38.44 211.888 38.7067 212.088 38.88C212.301 39.0533 212.561 39.14 212.868 39.14C213.174 39.14 213.468 39.0867 213.748 38.98C214.028 38.8733 214.234 38.7867 214.368 38.72L214.828 40.46ZM215.591 37.94C215.591 37.2733 215.778 36.6933 216.151 36.2C216.538 35.6933 217.065 35.3067 217.731 35.04C218.398 34.76 219.171 34.62 220.051 34.62C220.518 34.62 220.991 34.6533 221.471 34.72C221.965 34.7867 222.398 34.8933 222.771 35.04V34.38C222.771 33.6467 222.551 33.0733 222.111 32.66C221.671 32.2467 221.038 32.04 220.211 32.04C219.625 32.04 219.071 32.1467 218.551 32.36C218.031 32.56 217.478 32.8467 216.891 33.22L216.151 31.74C216.845 31.2733 217.538 30.9267 218.231 30.7C218.938 30.4733 219.678 30.36 220.451 30.36C221.851 30.36 222.951 30.7333 223.751 31.48C224.565 32.2133 224.971 33.26 224.971 34.62V38.52C224.971 38.7733 225.011 38.9533 225.091 39.06C225.185 39.1667 225.338 39.2267 225.551 39.24V41C225.351 41.04 225.171 41.0667 225.011 41.08C224.851 41.0933 224.718 41.1 224.611 41.1C224.145 41.1 223.791 40.9867 223.551 40.76C223.311 40.5333 223.171 40.2667 223.131 39.96L223.071 39.36C222.618 39.9467 222.038 40.4 221.331 40.72C220.625 41.04 219.911 41.2 219.191 41.2C218.498 41.2 217.878 41.06 217.331 40.78C216.785 40.4867 216.358 40.0933 216.051 39.6C215.745 39.1067 215.591 38.5533 215.591 37.94ZM222.251 38.58C222.411 38.4067 222.538 38.2333 222.631 38.06C222.725 37.8867 222.771 37.7333 222.771 37.6V36.4C222.398 36.2533 222.005 36.1467 221.591 36.08C221.178 36 220.771 35.96 220.371 35.96C219.571 35.96 218.918 36.12 218.411 36.44C217.918 36.76 217.671 37.2 217.671 37.76C217.671 38.0667 217.751 38.36 217.911 38.64C218.085 38.92 218.325 39.1467 218.631 39.32C218.951 39.4933 219.345 39.58 219.811 39.58C220.291 39.58 220.751 39.4867 221.191 39.3C221.631 39.1133 221.985 38.8733 222.251 38.58Z" fill="#E5B2FF"/>
<g clip-path="url(#clip0_853_179)">
<path d="M25.9998 9.11133L0.992188 34.5472L4.16776 38.1522L29.1754 12.7164L25.9998 9.11133Z" fill="#E5B2FF"/>
<path d="M3.47366 31.9434L0.0996094 35.4483L25.008 63.6881L28.3821 60.1831L3.47366 31.9434Z" fill="#E5B2FF"/>
<path d="M64.7029 9.11133L61.5273 12.7164L86.535 38.1522L89.7106 34.5472L64.7029 9.11133Z" fill="#E5B2FF"/>
<path d="M87.2287 31.9434L62.3203 60.1831L65.6944 63.6881L90.6028 35.4483L87.2287 31.9434Z" fill="#E5B2FF"/>
<path d="M45.649 1L20.0459 27.0367L23.5192 30.9422L49.1222 4.9055L45.649 1Z" fill="#E5B2FF"/>
<path d="M45.6483 1L41.9766 4.70522L66.488 32.0437L70.1598 28.3385L45.6483 1Z" fill="#E5B2FF"/>
<path d="M23.5192 41.1582L20.0459 45.0637L45.649 71.1004L49.1222 67.1949L23.5192 41.1582Z" fill="#E5B2FF"/>
<path d="M66.4884 40.1562L42.0762 67.3946L45.7479 71.0998L70.1601 43.8615L66.4884 40.1562Z" fill="#E5B2FF"/>
<path d="M59.0458 40.1562H31.458V45.7642H59.0458V40.1562Z" fill="#E5B2FF"/>
<path d="M31.458 27.7379V45.563H36.6183V23.0312H36.5191L31.458 27.7379Z" fill="#E5B2FF"/>
<path d="M59.1447 27.7379V45.563H53.9844V23.0312H54.0836L59.1447 27.7379Z" fill="#E5B2FF"/>
</g>
<defs>
<clipPath id="clip0_853_179">
<rect width="91" height="71" fill="white" transform="translate(0 0.5)"/>
</clipPath>
</defs>
</svg>
