<?xml version="1.0" encoding="utf-8"?>
<!-- Generator: Adobe Illustrator 23.0.5, SVG Export Plug-In . SVG Version: 6.00 Build 0)  -->
<svg version="1.1" id="Capa_1" xmlns="http://www.w3.org/2000/svg" xmlns:xlink="http://www.w3.org/1999/xlink" x="0px" y="0px"
	 viewBox="0 0 91.7 70.9" style="enable-background:new 0 0 91.7 70.9;" xml:space="preserve">
<style type="text/css">
	.st0{fill:#FFFFFF;filter:url(#Adobe_OpacityMaskFilter);}
	.st1{mask:url(#mask0_99_4377_1_);}
	.st2{fill:#FFFFFF;filter:url(#Adobe_OpacityMaskFilter_1_);}
	.st3{mask:url(#mask1_99_4377_1_);}
	.st4{fill:#FFFFFF;filter:url(#Adobe_OpacityMaskFilter_2_);}
	.st5{mask:url(#mask2_99_4377_1_);}
	.st6{fill:#FFFFFF;filter:url(#Adobe_OpacityMaskFilter_3_);}
	.st7{mask:url(#mask3_99_4377_1_);}
	.st8{fill:#FFFFFF;filter:url(#Adobe_OpacityMaskFilter_4_);}
	.st9{mask:url(#mask4_99_4377_1_);}
	.st10{fill:#FFFFFF;filter:url(#Adobe_OpacityMaskFilter_5_);}
	.st11{mask:url(#mask5_99_4377_1_);}
	.st12{fill:#FFFFFF;filter:url(#Adobe_OpacityMaskFilter_6_);}
	.st13{mask:url(#mask6_99_4377_1_);}
	.st14{fill:#FFFFFF;filter:url(#Adobe_OpacityMaskFilter_7_);}
	.st15{mask:url(#mask7_99_4377_1_);}
	.st16{fill:#FFFFFF;filter:url(#Adobe_OpacityMaskFilter_8_);}
	.st17{mask:url(#mask8_99_4377_1_);}
	.st18{fill:#FFFFFF;filter:url(#Adobe_OpacityMaskFilter_9_);}
	.st19{mask:url(#mask9_99_4377_1_);}
</style>
<defs>
	<filter id="Adobe_OpacityMaskFilter" filterUnits="userSpaceOnUse" x="1" y="8.6" width="28.4" height="29">
		<feColorMatrix  type="matrix" values="1 0 0 0 0  0 1 0 0 0  0 0 1 0 0  0 0 0 1 0"/>
	</filter>
</defs>
<mask maskUnits="userSpaceOnUse" x="1" y="8.6" width="28.4" height="29" id="mask0_99_4377_1_">
	<path class="st0" d="M-207.3-482.7L-592.8-93.9l514.7,578.6L307.4,95.9L-207.3-482.7z"/>
</mask>
<g class="st1">
	<path d="M26.2,8.6L1,34l3.2,3.6l25.2-25.4L26.2,8.6z"/>
</g>
<defs>
	<filter id="Adobe_OpacityMaskFilter_1_" filterUnits="userSpaceOnUse" x="0.1" y="31.4" width="28.5" height="31.7">
		<feColorMatrix  type="matrix" values="1 0 0 0 0  0 1 0 0 0  0 0 1 0 0  0 0 0 1 0"/>
	</filter>
</defs>
<mask maskUnits="userSpaceOnUse" x="0.1" y="31.4" width="28.5" height="31.7" id="mask1_99_4377_1_">
	<path class="st2" d="M-223.1-476.7L-608.6-87.9l514.7,578.6l385.5-388.8L-223.1-476.7z"/>
</mask>
<g class="st3">
	<path d="M3.5,31.4l-3.4,3.5l25.1,28.2l3.4-3.5L3.5,31.4z"/>
</g>
<defs>
	<filter id="Adobe_OpacityMaskFilter_2_" filterUnits="userSpaceOnUse" x="62" y="8.6" width="28.4" height="29">
		<feColorMatrix  type="matrix" values="1 0 0 0 0  0 1 0 0 0  0 0 1 0 0  0 0 0 1 0"/>
	</filter>
</defs>
<mask maskUnits="userSpaceOnUse" x="62" y="8.6" width="28.4" height="29" id="mask2_99_4377_1_">
	<path class="st4" d="M-215.1-421.9L-578.8-13.1l544.9,549.6l363.7-408.8L-215.1-421.9z"/>
</mask>
<g class="st5">
	<path d="M65.2,8.6L62,12.2l25.2,25.4l3.2-3.6L65.2,8.6z"/>
</g>
<defs>
	<filter id="Adobe_OpacityMaskFilter_3_" filterUnits="userSpaceOnUse" x="62.8" y="31.4" width="28.5" height="31.7">
		<feColorMatrix  type="matrix" values="1 0 0 0 0  0 1 0 0 0  0 0 1 0 0  0 0 0 1 0"/>
	</filter>
</defs>
<mask maskUnits="userSpaceOnUse" x="62.8" y="31.4" width="28.5" height="31.7" id="mask3_99_4377_1_">
	<path class="st6" d="M-231.3-413.8L-595-4.9l544.9,549.6l363.7-408.8L-231.3-413.8z"/>
</mask>
<g class="st7">
	<path d="M87.9,31.4L62.8,59.6l3.4,3.5l25.1-28.2L87.9,31.4z"/>
</g>
<defs>
	<filter id="Adobe_OpacityMaskFilter_4_" filterUnits="userSpaceOnUse" x="20.2" y="0.5" width="29.3" height="29.9">
		<feColorMatrix  type="matrix" values="1 0 0 0 0  0 1 0 0 0  0 0 1 0 0  0 0 0 1 0"/>
	</filter>
</defs>
<mask maskUnits="userSpaceOnUse" x="20.2" y="0.5" width="29.3" height="29.9" id="mask4_99_4377_1_">
	<path class="st8" d="M-197-470.4L-582.5-81.6L-67.8,497l385.5-388.8L-197-470.4z"/>
</mask>
<g class="st9">
	<path d="M46,0.5l-25.8,26l3.5,3.9l25.8-26L46,0.5z"/>
</g>
<defs>
	<filter id="Adobe_OpacityMaskFilter_5_" filterUnits="userSpaceOnUse" x="42.4" y="0.5" width="28.3" height="31">
		<feColorMatrix  type="matrix" values="1 0 0 0 0  0 1 0 0 0  0 0 1 0 0  0 0 0 1 0"/>
	</filter>
</defs>
<mask maskUnits="userSpaceOnUse" x="42.4" y="0.5" width="28.3" height="31" id="mask5_99_4377_1_">
	<path class="st10" d="M-195.1-452.3L-577.5-60.5L-58.2,514l382.4-391.9L-195.1-452.3z"/>
</mask>
<g class="st11">
	<path d="M46,0.5l-3.7,3.7L67,31.5l3.7-3.7L46,0.5z"/>
</g>
<defs>
	<filter id="Adobe_OpacityMaskFilter_6_" filterUnits="userSpaceOnUse" x="20.2" y="40.6" width="29.3" height="29.9">
		<feColorMatrix  type="matrix" values="1 0 0 0 0  0 1 0 0 0  0 0 1 0 0  0 0 0 1 0"/>
	</filter>
</defs>
<mask maskUnits="userSpaceOnUse" x="20.2" y="40.6" width="29.3" height="29.9" id="mask6_99_4377_1_">
	<path class="st12" d="M-250.2-443.8L-613.9-34.9L-69,514.7l363.7-408.9L-250.2-443.8z"/>
</mask>
<g class="st13">
	<path d="M23.7,40.6l-3.5,3.9l25.8,26l3.5-3.9L23.7,40.6z"/>
</g>
<defs>
	<filter id="Adobe_OpacityMaskFilter_7_" filterUnits="userSpaceOnUse" x="42.4" y="39.6" width="28.3" height="31">
		<feColorMatrix  type="matrix" values="1 0 0 0 0  0 1 0 0 0  0 0 1 0 0  0 0 0 1 0"/>
	</filter>
</defs>
<mask maskUnits="userSpaceOnUse" x="42.4" y="39.6" width="28.3" height="31" id="mask7_99_4377_1_">
	<path class="st14" d="M-239.2-429.7l-367,406l540.6,554l367-406L-239.2-429.7z"/>
</mask>
<g class="st15">
	<path d="M67,39.6L42.4,66.8l3.7,3.7l24.6-27.2L67,39.6z"/>
</g>
<defs>
	<filter id="Adobe_OpacityMaskFilter_8_" filterUnits="userSpaceOnUse" x="31.7" y="39.6" width="27.8" height="5.6">
		<feColorMatrix  type="matrix" values="1 0 0 0 0  0 1 0 0 0  0 0 1 0 0  0 0 0 1 0"/>
	</filter>
</defs>
<mask maskUnits="userSpaceOnUse" x="31.7" y="39.6" width="27.8" height="5.6" id="mask8_99_4377_1_">
	<path class="st16" d="M179.9-507.5h-530v798h530V-507.5z"/>
</mask>
<g class="st17">
	<path d="M59.5,39.6H31.7v5.6h27.8V39.6z"/>
</g>
<defs>
	<filter id="Adobe_OpacityMaskFilter_9_" filterUnits="userSpaceOnUse" x="31.7" y="22.5" width="5.2" height="22.6">
		<feColorMatrix  type="matrix" values="1 0 0 0 0  0 1 0 0 0  0 0 1 0 0  0 0 0 1 0"/>
	</filter>
</defs>
<mask maskUnits="userSpaceOnUse" x="31.7" y="22.5" width="5.2" height="22.6" id="mask9_99_4377_1_">
	<path class="st18" d="M179.9-507.5h-530v798h530V-507.5z"/>
</mask>
<g class="st19">
	<path d="M31.7,27.2v17.8h5.2V22.5h-0.1L31.7,27.2z"/>
</g>
<path d="M59.6,27.2v17.8h-5.2V22.5h0.1L59.6,27.2z"/>
</svg>
