<svg width="272" height="398" viewBox="0 0 272 398" fill="none" xmlns="http://www.w3.org/2000/svg">
<circle cx="136" cy="136" r="136" fill="#BCBCBC" fill-opacity="0.5"/>
<path d="M135.726 136.457C141.24 136.457 145.714 130.497 145.714 123.14C145.714 115.782 141.24 109.822 135.726 109.822C130.213 109.822 125.738 115.782 125.738 123.14C125.738 130.497 130.213 136.457 135.726 136.457Z" fill="#3D3D3D" fill-opacity="0.5"/>
<path d="M162.048 141.85C160.749 119.291 155.602 105.181 150.215 96.4448C147.092 91.3976 143.916 88.1881 141.433 86.2105C140.463 85.43 139.432 84.7286 138.35 84.113C138.036 83.9348 137.716 83.7682 137.391 83.6137C136.878 83.3406 136.307 83.1945 135.726 83.1875C135.104 83.1962 134.494 83.3635 133.955 83.6736C133.634 83.84 133.318 84.0176 133.009 84.2063C131.936 84.859 130.914 85.5937 129.953 86.4036C127.489 88.4545 124.333 91.7505 121.23 96.8576C115.87 105.66 110.73 119.717 109.418 141.843L99.45 154.002L99.4233 154.035C97.0612 156.987 95.7743 160.655 95.7744 164.436V186.396C95.7744 187.095 95.9943 187.776 96.4028 188.343C96.8114 188.91 97.388 189.334 98.0509 189.555C98.7138 189.776 99.4294 189.782 100.096 189.574C100.763 189.366 101.348 188.953 101.767 188.394L109.258 178.406C110.363 176.928 112.055 175.742 114.265 174.61C115.69 173.891 117.022 173.332 118.427 172.739L119.745 172.18C124.406 175.03 130.066 176.408 135.726 176.408C141.386 176.408 147.046 175.03 151.707 172.18C152.153 172.38 152.586 172.553 153.012 172.733C154.43 173.332 155.762 173.891 157.187 174.61C159.398 175.742 161.089 176.928 162.194 178.406L169.685 188.394C170.104 188.953 170.689 189.366 171.356 189.574C172.023 189.782 172.738 189.776 173.401 189.555C174.064 189.334 174.641 188.91 175.049 188.343C175.458 187.776 175.678 187.095 175.678 186.396V164.436C175.678 160.655 174.391 156.987 172.029 154.035L162.048 141.85ZM162.361 152.737V153.103C162.361 158.869 160.47 163.657 157.367 167.352C158.339 167.779 159.311 168.218 160.197 168.678C162.793 169.989 165.523 171.74 167.521 174.404L169.019 176.408V164.436C169.019 162.174 168.252 159.979 166.842 158.21L162.361 152.737ZM114.086 167.352C110.983 163.657 109.092 158.869 109.092 153.103V152.743L104.61 158.203C103.199 159.974 102.431 162.172 102.433 164.436V176.408L103.931 174.411C105.929 171.747 108.659 169.989 111.256 168.678C112.141 168.225 113.113 167.779 114.086 167.352ZM135.786 90.3322C136.206 90.5985 136.718 90.9581 137.291 91.4176C139.182 92.9224 141.839 95.5526 144.549 99.9406C149.956 108.73 155.702 124.717 155.702 153.103C155.702 158.816 153.212 162.958 149.423 165.708C145.827 168.325 140.927 169.75 135.726 169.75C130.526 169.75 125.625 168.325 122.029 165.708C118.234 162.951 115.75 158.816 115.75 153.103C115.75 125.257 121.477 109.249 126.917 100.313C129.64 95.8522 132.31 93.1088 134.215 91.5241C134.814 91.018 135.347 90.6318 135.786 90.3322Z" fill="#3D3D3D" fill-opacity="0.5"/>
<path d="M145.574 178.814C142.378 179.434 139.049 179.74 135.726 179.74C132.397 179.74 129.074 179.434 125.878 178.814L133.063 188.396C133.373 188.81 133.775 189.145 134.237 189.376C134.699 189.608 135.209 189.728 135.726 189.728C136.243 189.728 136.753 189.608 137.215 189.376C137.677 189.145 138.079 188.81 138.389 188.396L145.574 178.814Z" fill="#3D3D3D" fill-opacity="0.5"/>
<circle cx="68.1364" cy="72.5144" r="3.55734" fill="#3D3D3D" fill-opacity="0.5"/>
<circle cx="53.9079" cy="131.622" r="3.55734" fill="#3D3D3D" fill-opacity="0.5"/>
<circle cx="149.134" cy="63.7585" r="3.55734" fill="#3D3D3D" fill-opacity="0.5"/>
<circle cx="196.201" cy="111.919" r="3.55734" fill="#3D3D3D" fill-opacity="0.5"/>
<circle cx="209.884" cy="200.032" r="3.55734" fill="#3D3D3D" fill-opacity="0.5"/>
<circle cx="232.869" cy="80.7234" r="3.55734" fill="#3D3D3D" fill-opacity="0.5"/>
<circle cx="71.4206" cy="207.145" r="3.55734" fill="#3D3D3D" fill-opacity="0.5"/>
<circle cx="110.278" cy="22.1648" r="3.55734" fill="#3D3D3D" fill-opacity="0.5"/>
<path d="M126.908 225.042C129.135 227.393 131.641 229.461 134.37 231.2C134.697 231.396 135.071 231.5 135.453 231.5C135.834 231.5 136.208 231.396 136.536 231.2C139.265 229.461 141.771 227.393 143.997 225.042C148.965 219.809 151.598 214.012 151.598 208.28C151.598 203.988 149.897 199.871 146.869 196.836C143.841 193.801 139.735 192.096 135.453 192.096C131.171 192.096 127.064 193.801 124.037 196.836C121.009 199.871 119.308 203.988 119.308 208.28C119.308 214.012 121.94 219.809 126.908 225.042ZM140.366 201.244C140.366 203.589 139.396 205.863 137.48 208.008C136.859 208.699 136.181 209.337 135.453 209.913C134.724 209.337 134.046 208.699 133.426 208.008C131.51 205.863 130.539 203.589 130.539 201.244C130.539 199.937 131.057 198.684 131.978 197.76C132.9 196.837 134.15 196.318 135.453 196.318C136.756 196.318 138.006 196.837 138.927 197.76C139.849 198.684 140.366 199.937 140.366 201.244ZM126.356 200.55C126.34 200.779 126.327 201.01 126.327 201.244C126.327 209.382 134.049 214.116 134.37 214.313C134.697 214.509 135.071 214.613 135.453 214.613C135.834 214.613 136.208 214.509 136.536 214.313C136.857 214.116 144.578 209.382 144.578 201.244C144.578 201.01 144.566 200.779 144.55 200.55C146.383 202.707 147.388 205.448 147.386 208.28C147.386 212.946 145.243 217.58 141.019 222.055C139.326 223.836 137.461 225.445 135.453 226.86C132.326 224.666 123.52 217.655 123.52 208.28C123.518 205.448 124.523 202.707 126.356 200.55Z" fill="#3D3D3D" fill-opacity="0.5"/>
<path d="M69.78 326V311.8H75.66C76.2733 311.8 76.8333 311.927 77.34 312.18C77.86 312.433 78.3067 312.78 78.68 313.22C79.0533 313.647 79.3467 314.127 79.56 314.66C79.7733 315.18 79.88 315.713 79.88 316.26C79.88 317.033 79.7067 317.767 79.36 318.46C79.0267 319.14 78.5533 319.693 77.94 320.12C77.3267 320.547 76.6067 320.76 75.78 320.76H71.18V326H69.78ZM71.18 319.52H75.72C76.28 319.52 76.7667 319.367 77.18 319.06C77.5933 318.753 77.9133 318.353 78.14 317.86C78.3667 317.367 78.48 316.833 78.48 316.26C78.48 315.673 78.3467 315.133 78.08 314.64C77.8133 314.147 77.46 313.76 77.02 313.48C76.5933 313.187 76.12 313.04 75.6 313.04H71.18V319.52ZM87.1414 316.78C86.2347 316.807 85.4347 317.06 84.7414 317.54C84.0614 318.02 83.5814 318.68 83.3014 319.52V326H81.9414V315.58H83.2214V318.08C83.5814 317.347 84.0547 316.753 84.6414 316.3C85.2414 315.847 85.8747 315.593 86.5414 315.54C86.6747 315.527 86.7881 315.52 86.8814 315.52C86.9881 315.52 87.0747 315.527 87.1414 315.54V316.78ZM93.0611 326.2C92.3144 326.2 91.6211 326.06 90.9811 325.78C90.3544 325.487 89.8078 325.093 89.3411 324.6C88.8878 324.093 88.5344 323.52 88.2811 322.88C88.0278 322.227 87.9011 321.54 87.9011 320.82C87.9011 320.073 88.0278 319.38 88.2811 318.74C88.5344 318.087 88.8944 317.513 89.3611 317.02C89.8278 316.513 90.3744 316.12 91.0011 315.84C91.6411 315.547 92.3344 315.4 93.0811 315.4C93.8278 315.4 94.5144 315.547 95.1411 315.84C95.7678 316.12 96.3144 316.513 96.7811 317.02C97.2478 317.513 97.6078 318.087 97.8611 318.74C98.1144 319.38 98.2411 320.073 98.2411 320.82C98.2411 321.54 98.1144 322.227 97.8611 322.88C97.6078 323.52 97.2478 324.093 96.7811 324.6C96.3278 325.093 95.7811 325.487 95.1411 325.78C94.5144 326.06 93.8211 326.2 93.0611 326.2ZM89.2811 320.84C89.2811 321.613 89.4478 322.32 89.7811 322.96C90.1278 323.587 90.5878 324.087 91.1611 324.46C91.7344 324.82 92.3678 325 93.0611 325C93.7544 325 94.3878 324.813 94.9611 324.44C95.5344 324.067 95.9944 323.56 96.3411 322.92C96.6878 322.267 96.8611 321.56 96.8611 320.8C96.8611 320.027 96.6878 319.32 96.3411 318.68C95.9944 318.04 95.5344 317.533 94.9611 317.16C94.3878 316.787 93.7544 316.6 93.0611 316.6C92.3678 316.6 91.7344 316.793 91.1611 317.18C90.6011 317.567 90.1478 318.08 89.8011 318.72C89.4544 319.347 89.2811 320.053 89.2811 320.84ZM100.367 315.58L103.427 319.66L103.587 319.96L103.747 319.66L106.787 315.58H108.327L104.367 320.82L108.327 326H106.787L103.747 321.94L103.587 321.66L103.427 321.94L100.387 326H98.8469L102.787 320.82L98.8469 315.58H100.367ZM110.125 326V315.58H111.485V326H110.125ZM110.125 313.4V311.4H111.485V313.4H110.125ZM129.98 326H128.62V320.18C128.62 318.967 128.427 318.073 128.04 317.5C127.654 316.927 127.08 316.64 126.32 316.64C125.534 316.64 124.827 316.92 124.2 317.48C123.587 318.04 123.154 318.76 122.9 319.64V326H121.54V320.18C121.54 318.953 121.354 318.06 120.98 317.5C120.607 316.927 120.034 316.64 119.26 316.64C118.487 316.64 117.787 316.913 117.16 317.46C116.534 318.007 116.094 318.727 115.84 319.62V326H114.48V315.58H115.72V317.94C116.16 317.127 116.72 316.5 117.4 316.06C118.094 315.62 118.86 315.4 119.7 315.4C120.567 315.4 121.267 315.647 121.8 316.14C122.334 316.633 122.66 317.28 122.78 318.08C123.26 317.2 123.834 316.533 124.5 316.08C125.18 315.627 125.947 315.4 126.8 315.4C127.387 315.4 127.88 315.507 128.28 315.72C128.694 315.933 129.02 316.24 129.26 316.64C129.514 317.027 129.694 317.5 129.8 318.06C129.92 318.607 129.98 319.22 129.98 319.9V326ZM132.019 323C132.019 322.347 132.206 321.787 132.579 321.32C132.953 320.84 133.466 320.473 134.119 320.22C134.786 319.953 135.553 319.82 136.419 319.82C136.926 319.82 137.453 319.86 137.999 319.94C138.546 320.02 139.033 320.14 139.459 320.3V319.42C139.459 318.54 139.199 317.84 138.679 317.32C138.159 316.8 137.439 316.54 136.519 316.54C135.959 316.54 135.406 316.647 134.859 316.86C134.326 317.06 133.766 317.36 133.179 317.76L132.659 316.8C133.339 316.333 134.006 315.987 134.659 315.76C135.313 315.52 135.979 315.4 136.659 315.4C137.939 315.4 138.953 315.767 139.699 316.5C140.446 317.233 140.819 318.247 140.819 319.54V324.36C140.819 324.547 140.859 324.687 140.939 324.78C141.019 324.86 141.146 324.907 141.319 324.92V326C141.173 326.013 141.046 326.027 140.939 326.04C140.833 326.053 140.753 326.053 140.699 326.04C140.366 326.027 140.113 325.92 139.939 325.72C139.766 325.52 139.673 325.307 139.659 325.08L139.639 324.32C139.173 324.92 138.566 325.387 137.819 325.72C137.073 326.04 136.313 326.2 135.539 326.2C134.873 326.2 134.266 326.06 133.719 325.78C133.186 325.487 132.766 325.1 132.459 324.62C132.166 324.127 132.019 323.587 132.019 323ZM138.999 323.8C139.146 323.613 139.259 323.433 139.339 323.26C139.419 323.087 139.459 322.933 139.459 322.8V321.28C139.006 321.107 138.533 320.973 138.039 320.88C137.559 320.787 137.073 320.74 136.579 320.74C135.606 320.74 134.819 320.933 134.219 321.32C133.619 321.707 133.319 322.233 133.319 322.9C133.319 323.287 133.419 323.653 133.619 324C133.819 324.333 134.113 324.613 134.499 324.84C134.886 325.053 135.339 325.16 135.859 325.16C136.513 325.16 137.119 325.033 137.679 324.78C138.253 324.527 138.693 324.2 138.999 323.8ZM159.258 326H157.898V320.18C157.898 318.967 157.704 318.073 157.318 317.5C156.931 316.927 156.358 316.64 155.598 316.64C154.811 316.64 154.104 316.92 153.478 317.48C152.864 318.04 152.431 318.76 152.178 319.64V326H150.818V320.18C150.818 318.953 150.631 318.06 150.258 317.5C149.884 316.927 149.311 316.64 148.538 316.64C147.764 316.64 147.064 316.913 146.438 317.46C145.811 318.007 145.371 318.727 145.118 319.62V326H143.758V315.58H144.998V317.94C145.438 317.127 145.998 316.5 146.678 316.06C147.371 315.62 148.138 315.4 148.978 315.4C149.844 315.4 150.544 315.647 151.078 316.14C151.611 316.633 151.938 317.28 152.058 318.08C152.538 317.2 153.111 316.533 153.778 316.08C154.458 315.627 155.224 315.4 156.078 315.4C156.664 315.4 157.158 315.507 157.558 315.72C157.971 315.933 158.298 316.24 158.538 316.64C158.791 317.027 158.971 317.5 159.078 318.06C159.198 318.607 159.258 319.22 159.258 319.9V326ZM166.637 326.2C165.89 326.2 165.197 326.06 164.557 325.78C163.917 325.487 163.363 325.093 162.897 324.6C162.43 324.093 162.063 323.513 161.797 322.86C161.543 322.207 161.417 321.507 161.417 320.76C161.417 319.787 161.637 318.893 162.077 318.08C162.53 317.267 163.15 316.62 163.937 316.14C164.723 315.647 165.617 315.4 166.617 315.4C167.643 315.4 168.537 315.647 169.297 316.14C170.07 316.633 170.677 317.287 171.117 318.1C171.557 318.9 171.777 319.78 171.777 320.74C171.777 320.847 171.777 320.953 171.777 321.06C171.777 321.153 171.77 321.227 171.757 321.28H162.837C162.903 322.027 163.11 322.693 163.457 323.28C163.817 323.853 164.277 324.313 164.837 324.66C165.41 324.993 166.03 325.16 166.697 325.16C167.377 325.16 168.017 324.987 168.617 324.64C169.23 324.293 169.657 323.84 169.897 323.28L171.077 323.6C170.863 324.093 170.537 324.54 170.097 324.94C169.657 325.34 169.137 325.653 168.537 325.88C167.95 326.093 167.317 326.2 166.637 326.2ZM162.797 320.3H170.497C170.443 319.54 170.237 318.873 169.877 318.3C169.53 317.727 169.07 317.28 168.497 316.96C167.937 316.627 167.317 316.46 166.637 316.46C165.957 316.46 165.337 316.627 164.777 316.96C164.217 317.28 163.757 317.733 163.397 318.32C163.05 318.893 162.85 319.553 162.797 320.3ZM182.635 326H181.275V320.18C181.275 318.953 181.095 318.06 180.735 317.5C180.375 316.927 179.808 316.64 179.035 316.64C178.502 316.64 177.975 316.773 177.455 317.04C176.935 317.293 176.475 317.647 176.075 318.1C175.688 318.54 175.408 319.047 175.235 319.62V326H173.875V315.58H175.115V317.94C175.395 317.433 175.762 316.993 176.215 316.62C176.668 316.233 177.182 315.933 177.755 315.72C178.328 315.507 178.922 315.4 179.535 315.4C180.108 315.4 180.595 315.507 180.995 315.72C181.395 315.933 181.715 316.24 181.955 316.64C182.195 317.027 182.368 317.5 182.475 318.06C182.582 318.607 182.635 319.22 182.635 319.9V326ZM190.438 325.5C190.331 325.54 190.164 325.613 189.938 325.72C189.711 325.827 189.438 325.92 189.118 326C188.798 326.08 188.451 326.12 188.078 326.12C187.691 326.12 187.324 326.047 186.978 325.9C186.644 325.753 186.378 325.533 186.178 325.24C185.978 324.933 185.878 324.56 185.878 324.12V316.66H184.438V315.58H185.878V312.06H187.238V315.58H189.638V316.66H187.238V323.74C187.264 324.113 187.398 324.393 187.638 324.58C187.891 324.767 188.178 324.86 188.498 324.86C188.871 324.86 189.211 324.8 189.518 324.68C189.824 324.547 190.011 324.453 190.078 324.4L190.438 325.5ZM196.461 326.2C195.714 326.2 195.021 326.06 194.381 325.78C193.741 325.487 193.188 325.093 192.721 324.6C192.254 324.093 191.888 323.513 191.621 322.86C191.368 322.207 191.241 321.507 191.241 320.76C191.241 319.787 191.461 318.893 191.901 318.08C192.354 317.267 192.974 316.62 193.761 316.14C194.548 315.647 195.441 315.4 196.441 315.4C197.468 315.4 198.361 315.647 199.121 316.14C199.894 316.633 200.501 317.287 200.941 318.1C201.381 318.9 201.601 319.78 201.601 320.74C201.601 320.847 201.601 320.953 201.601 321.06C201.601 321.153 201.594 321.227 201.581 321.28H192.661C192.728 322.027 192.934 322.693 193.281 323.28C193.641 323.853 194.101 324.313 194.661 324.66C195.234 324.993 195.854 325.16 196.521 325.16C197.201 325.16 197.841 324.987 198.441 324.64C199.054 324.293 199.481 323.84 199.721 323.28L200.901 323.6C200.688 324.093 200.361 324.54 199.921 324.94C199.481 325.34 198.961 325.653 198.361 325.88C197.774 326.093 197.141 326.2 196.461 326.2ZM192.621 320.3H200.321C200.268 319.54 200.061 318.873 199.701 318.3C199.354 317.727 198.894 317.28 198.321 316.96C197.761 316.627 197.141 316.46 196.461 316.46C195.781 316.46 195.161 316.627 194.601 316.96C194.041 317.28 193.581 317.733 193.221 318.32C192.874 318.893 192.674 319.553 192.621 320.3Z" fill="#3D3D3D" fill-opacity="0.5"/>
<path d="M57.9144 367.922C57.7744 367.763 57.6111 367.623 57.4244 367.502C57.2377 367.371 57.0277 367.259 56.7944 367.166C56.5611 367.073 56.3091 366.998 56.0384 366.942C55.7771 366.886 55.4971 366.858 55.1984 366.858C54.3304 366.858 53.6911 367.026 53.2804 367.362C52.8791 367.689 52.6784 368.137 52.6784 368.706C52.6784 369.098 52.7717 369.406 52.9584 369.63C53.1544 369.854 53.4577 370.036 53.8684 370.176C54.2791 370.316 54.8017 370.461 55.4364 370.61C56.1457 370.759 56.7571 370.937 57.2704 371.142C57.7837 371.347 58.1804 371.627 58.4604 371.982C58.7404 372.327 58.8804 372.799 58.8804 373.396C58.8804 373.853 58.7917 374.25 58.6144 374.586C58.4371 374.922 58.1897 375.202 57.8724 375.426C57.5551 375.65 57.1771 375.818 56.7384 375.93C56.2997 376.033 55.8191 376.084 55.2964 376.084C54.7831 376.084 54.2884 376.033 53.8124 375.93C53.3457 375.818 52.9024 375.659 52.4824 375.454C52.0624 375.239 51.6704 374.969 51.3064 374.642L51.7964 373.844C51.9737 374.031 52.1837 374.208 52.4264 374.376C52.6784 374.535 52.9537 374.679 53.2524 374.81C53.5604 374.941 53.8871 375.043 54.2324 375.118C54.5871 375.183 54.9511 375.216 55.3244 375.216C56.1177 375.216 56.7337 375.071 57.1724 374.782C57.6204 374.493 57.8444 374.063 57.8444 373.494C57.8444 373.083 57.7324 372.757 57.5084 372.514C57.2844 372.262 56.9484 372.057 56.5004 371.898C56.0524 371.739 55.5017 371.585 54.8484 371.436C54.1577 371.277 53.5744 371.1 53.0984 370.904C52.6224 370.708 52.2631 370.451 52.0204 370.134C51.7871 369.807 51.6704 369.378 51.6704 368.846C51.6704 368.23 51.8197 367.712 52.1184 367.292C52.4264 366.863 52.8464 366.541 53.3784 366.326C53.9104 366.102 54.5217 365.99 55.2124 365.99C55.6511 365.99 56.0571 366.037 56.4304 366.13C56.8131 366.214 57.1631 366.34 57.4804 366.508C57.8071 366.676 58.1104 366.886 58.3904 367.138L57.9144 367.922ZM63.5623 376.14C63.0396 376.14 62.5543 376.042 62.1063 375.846C61.6583 375.641 61.271 375.365 60.9443 375.02C60.6176 374.665 60.361 374.259 60.1743 373.802C59.997 373.345 59.9083 372.855 59.9083 372.332C59.9083 371.651 60.0623 371.025 60.3703 370.456C60.6876 369.887 61.1216 369.434 61.6723 369.098C62.223 368.753 62.8483 368.58 63.5483 368.58C64.267 368.58 64.8923 368.753 65.4243 369.098C65.9656 369.443 66.3903 369.901 66.6983 370.47C67.0063 371.03 67.1603 371.646 67.1603 372.318C67.1603 372.393 67.1603 372.467 67.1603 372.542C67.1603 372.607 67.1556 372.659 67.1463 372.696H60.9023C60.949 373.219 61.0936 373.685 61.3363 374.096C61.5883 374.497 61.9103 374.819 62.3023 375.062C62.7036 375.295 63.1376 375.412 63.6043 375.412C64.0803 375.412 64.5283 375.291 64.9483 375.048C65.3776 374.805 65.6763 374.488 65.8443 374.096L66.6703 374.32C66.521 374.665 66.2923 374.978 65.9843 375.258C65.6763 375.538 65.3123 375.757 64.8923 375.916C64.4816 376.065 64.0383 376.14 63.5623 376.14ZM60.8743 372.01H66.2643C66.227 371.478 66.0823 371.011 65.8303 370.61C65.5876 370.209 65.2656 369.896 64.8643 369.672C64.4723 369.439 64.0383 369.322 63.5623 369.322C63.0863 369.322 62.6523 369.439 62.2603 369.672C61.8683 369.896 61.5463 370.213 61.2943 370.624C61.0516 371.025 60.9116 371.487 60.8743 372.01ZM73.9846 376L71.0306 368.706H72.0246L74.5166 375.048L77.0226 368.706H77.9606L75.0066 376H73.9846ZM79.2795 376V368.706H80.2315V376H79.2795ZM79.2795 367.18V365.78H80.2315V367.18H79.2795ZM85.4783 376.14C84.9557 376.14 84.4703 376.042 84.0223 375.846C83.5743 375.641 83.187 375.365 82.8603 375.02C82.5337 374.665 82.277 374.259 82.0903 373.802C81.913 373.345 81.8243 372.855 81.8243 372.332C81.8243 371.651 81.9783 371.025 82.2863 370.456C82.6037 369.887 83.0377 369.434 83.5883 369.098C84.139 368.753 84.7643 368.58 85.4643 368.58C86.183 368.58 86.8083 368.753 87.3403 369.098C87.8817 369.443 88.3063 369.901 88.6143 370.47C88.9223 371.03 89.0763 371.646 89.0763 372.318C89.0763 372.393 89.0763 372.467 89.0763 372.542C89.0763 372.607 89.0717 372.659 89.0623 372.696H82.8183C82.865 373.219 83.0097 373.685 83.2523 374.096C83.5043 374.497 83.8263 374.819 84.2183 375.062C84.6197 375.295 85.0537 375.412 85.5203 375.412C85.9963 375.412 86.4443 375.291 86.8643 375.048C87.2937 374.805 87.5923 374.488 87.7603 374.096L88.5863 374.32C88.437 374.665 88.2083 374.978 87.9003 375.258C87.5923 375.538 87.2283 375.757 86.8083 375.916C86.3977 376.065 85.9543 376.14 85.4783 376.14ZM82.7903 372.01H88.1803C88.143 371.478 87.9983 371.011 87.7463 370.61C87.5037 370.209 87.1817 369.896 86.7803 369.672C86.3883 369.439 85.9543 369.322 85.4783 369.322C85.0023 369.322 84.5683 369.439 84.1763 369.672C83.7843 369.896 83.4623 370.213 83.2103 370.624C82.9677 371.025 82.8277 371.487 82.7903 372.01ZM96.6771 376H95.7251V371.926C95.7251 371.067 95.5991 370.442 95.3471 370.05C95.0951 369.649 94.6985 369.448 94.1571 369.448C93.7838 369.448 93.4151 369.541 93.0511 369.728C92.6871 369.905 92.3651 370.153 92.0851 370.47C91.8145 370.778 91.6185 371.133 91.4971 371.534V376H90.5451V368.706H91.4131V370.358C91.6091 370.003 91.8658 369.695 92.1831 369.434C92.5005 369.163 92.8598 368.953 93.2611 368.804C93.6625 368.655 94.0778 368.58 94.5071 368.58C94.9085 368.58 95.2491 368.655 95.5291 368.804C95.8091 368.953 96.0331 369.168 96.2011 369.448C96.3691 369.719 96.4905 370.05 96.5651 370.442C96.6398 370.825 96.6771 371.254 96.6771 371.73V376ZM101.857 376.14C101.335 376.14 100.849 376.042 100.401 375.846C99.9532 375.641 99.5659 375.365 99.2392 375.02C98.9126 374.665 98.6559 374.259 98.4692 373.802C98.2919 373.345 98.2032 372.855 98.2032 372.332C98.2032 371.651 98.3572 371.025 98.6652 370.456C98.9826 369.887 99.4166 369.434 99.9672 369.098C100.518 368.753 101.143 368.58 101.843 368.58C102.562 368.58 103.187 368.753 103.719 369.098C104.261 369.443 104.685 369.901 104.993 370.47C105.301 371.03 105.455 371.646 105.455 372.318C105.455 372.393 105.455 372.467 105.455 372.542C105.455 372.607 105.451 372.659 105.441 372.696H99.1972C99.2439 373.219 99.3886 373.685 99.6312 374.096C99.8832 374.497 100.205 374.819 100.597 375.062C100.999 375.295 101.433 375.412 101.899 375.412C102.375 375.412 102.823 375.291 103.243 375.048C103.673 374.805 103.971 374.488 104.139 374.096L104.965 374.32C104.816 374.665 104.587 374.978 104.279 375.258C103.971 375.538 103.607 375.757 103.187 375.916C102.777 376.065 102.333 376.14 101.857 376.14ZM99.1692 372.01H104.559C104.522 371.478 104.377 371.011 104.125 370.61C103.883 370.209 103.561 369.896 103.159 369.672C102.767 369.439 102.333 369.322 101.857 369.322C101.381 369.322 100.947 369.439 100.555 369.672C100.163 369.896 99.8412 370.213 99.5892 370.624C99.3466 371.025 99.2066 371.487 99.1692 372.01ZM113.056 376H112.104V371.926C112.104 371.067 111.978 370.442 111.726 370.05C111.474 369.649 111.077 369.448 110.536 369.448C110.163 369.448 109.794 369.541 109.43 369.728C109.066 369.905 108.744 370.153 108.464 370.47C108.193 370.778 107.997 371.133 107.876 371.534V376H106.924V368.706H107.792V370.358C107.988 370.003 108.245 369.695 108.562 369.434C108.879 369.163 109.239 368.953 109.64 368.804C110.041 368.655 110.457 368.58 110.886 368.58C111.287 368.58 111.628 368.655 111.908 368.804C112.188 368.953 112.412 369.168 112.58 369.448C112.748 369.719 112.869 370.05 112.944 370.442C113.019 370.825 113.056 371.254 113.056 371.73V376ZM124.786 376H123.834V371.926C123.834 371.067 123.708 370.442 123.456 370.05C123.204 369.649 122.808 369.448 122.266 369.448C121.893 369.448 121.524 369.541 121.16 369.728C120.796 369.905 120.474 370.153 120.194 370.47C119.924 370.778 119.728 371.133 119.606 371.534V376H118.654V368.706H119.522V370.358C119.718 370.003 119.975 369.695 120.292 369.434C120.61 369.163 120.969 368.953 121.37 368.804C121.772 368.655 122.187 368.58 122.616 368.58C123.018 368.58 123.358 368.655 123.638 368.804C123.918 368.953 124.142 369.168 124.31 369.448C124.478 369.719 124.6 370.05 124.674 370.442C124.749 370.825 124.786 371.254 124.786 371.73V376ZM126.747 372.99V368.706H127.699V372.822C127.699 373.653 127.839 374.273 128.119 374.684C128.408 375.095 128.833 375.3 129.393 375.3C129.766 375.3 130.125 375.221 130.471 375.062C130.825 374.894 131.138 374.661 131.409 374.362C131.679 374.054 131.885 373.699 132.025 373.298V368.706H132.977V374.852C132.977 374.983 133.005 375.081 133.061 375.146C133.117 375.202 133.201 375.235 133.313 375.244V376C133.201 376.009 133.112 376.014 133.047 376.014C132.981 376.023 132.921 376.028 132.865 376.028C132.678 376.009 132.515 375.935 132.375 375.804C132.244 375.673 132.174 375.515 132.165 375.328L132.137 374.348C131.819 374.908 131.385 375.347 130.835 375.664C130.293 375.981 129.705 376.14 129.071 376.14C128.305 376.14 127.727 375.874 127.335 375.342C126.943 374.81 126.747 374.026 126.747 372.99ZM138.279 376.14C137.756 376.14 137.271 376.042 136.823 375.846C136.375 375.641 135.988 375.365 135.661 375.02C135.334 374.665 135.078 374.259 134.891 373.802C134.714 373.345 134.625 372.855 134.625 372.332C134.625 371.651 134.779 371.025 135.087 370.456C135.404 369.887 135.838 369.434 136.389 369.098C136.94 368.753 137.565 368.58 138.265 368.58C138.984 368.58 139.609 368.753 140.141 369.098C140.682 369.443 141.107 369.901 141.415 370.47C141.723 371.03 141.877 371.646 141.877 372.318C141.877 372.393 141.877 372.467 141.877 372.542C141.877 372.607 141.872 372.659 141.863 372.696H135.619C135.666 373.219 135.81 373.685 136.053 374.096C136.305 374.497 136.627 374.819 137.019 375.062C137.42 375.295 137.854 375.412 138.321 375.412C138.797 375.412 139.245 375.291 139.665 375.048C140.094 374.805 140.393 374.488 140.561 374.096L141.387 374.32C141.238 374.665 141.009 374.978 140.701 375.258C140.393 375.538 140.029 375.757 139.609 375.916C139.198 376.065 138.755 376.14 138.279 376.14ZM135.591 372.01H140.981C140.944 371.478 140.799 371.011 140.547 370.61C140.304 370.209 139.982 369.896 139.581 369.672C139.189 369.439 138.755 369.322 138.279 369.322C137.803 369.322 137.369 369.439 136.977 369.672C136.585 369.896 136.263 370.213 136.011 370.624C135.768 371.025 135.628 371.487 135.591 372.01ZM145.324 376L142.37 368.706H143.364L145.856 375.048L148.362 368.706H149.3L146.346 376H145.324ZM153.481 376.14C152.959 376.14 152.473 376.042 152.025 375.846C151.587 375.641 151.204 375.365 150.877 375.02C150.56 374.665 150.313 374.264 150.135 373.816C149.958 373.359 149.869 372.878 149.869 372.374C149.869 371.851 149.958 371.366 150.135 370.918C150.313 370.461 150.565 370.059 150.891 369.714C151.218 369.359 151.601 369.084 152.039 368.888C152.487 368.683 152.973 368.58 153.495 368.58C154.018 368.58 154.499 368.683 154.937 368.888C155.376 369.084 155.759 369.359 156.085 369.714C156.412 370.059 156.664 370.461 156.841 370.918C157.019 371.366 157.107 371.851 157.107 372.374C157.107 372.878 157.019 373.359 156.841 373.816C156.664 374.264 156.412 374.665 156.085 375.02C155.768 375.365 155.385 375.641 154.937 375.846C154.499 376.042 154.013 376.14 153.481 376.14ZM150.835 372.388C150.835 372.929 150.952 373.424 151.185 373.872C151.428 374.311 151.75 374.661 152.151 374.922C152.553 375.174 152.996 375.3 153.481 375.3C153.967 375.3 154.41 375.169 154.811 374.908C155.213 374.647 155.535 374.292 155.777 373.844C156.02 373.387 156.141 372.892 156.141 372.36C156.141 371.819 156.02 371.324 155.777 370.876C155.535 370.428 155.213 370.073 154.811 369.812C154.41 369.551 153.967 369.42 153.481 369.42C152.996 369.42 152.553 369.555 152.151 369.826C151.759 370.097 151.442 370.456 151.199 370.904C150.957 371.343 150.835 371.837 150.835 372.388ZM161.093 376.14C160.496 376.14 159.941 376.042 159.427 375.846C158.914 375.65 158.471 375.351 158.097 374.95L158.489 374.278C158.9 374.661 159.311 374.941 159.721 375.118C160.141 375.286 160.585 375.37 161.051 375.37C161.621 375.37 162.083 375.258 162.437 375.034C162.792 374.801 162.969 374.469 162.969 374.04C162.969 373.751 162.881 373.531 162.703 373.382C162.535 373.223 162.288 373.097 161.961 373.004C161.644 372.901 161.261 372.794 160.813 372.682C160.309 372.542 159.885 372.397 159.539 372.248C159.203 372.089 158.947 371.893 158.769 371.66C158.601 371.417 158.517 371.105 158.517 370.722C158.517 370.246 158.634 369.854 158.867 369.546C159.11 369.229 159.437 368.991 159.847 368.832C160.267 368.664 160.734 368.58 161.247 368.58C161.807 368.58 162.302 368.669 162.731 368.846C163.161 369.023 163.511 369.271 163.781 369.588L163.319 370.232C163.058 369.933 162.745 369.714 162.381 369.574C162.027 369.425 161.63 369.35 161.191 369.35C160.893 369.35 160.608 369.392 160.337 369.476C160.067 369.551 159.843 369.681 159.665 369.868C159.497 370.045 159.413 370.293 159.413 370.61C159.413 370.871 159.479 371.077 159.609 371.226C159.74 371.366 159.936 371.487 160.197 371.59C160.459 371.683 160.781 371.786 161.163 371.898C161.714 372.047 162.195 372.201 162.605 372.36C163.016 372.509 163.333 372.705 163.557 372.948C163.781 373.191 163.893 373.531 163.893 373.97C163.893 374.651 163.637 375.183 163.123 375.566C162.61 375.949 161.933 376.14 161.093 376.14ZM172.199 376.14C171.667 376.14 171.177 376.042 170.729 375.846C170.291 375.641 169.903 375.361 169.567 375.006C169.241 374.651 168.984 374.245 168.797 373.788C168.62 373.331 168.531 372.845 168.531 372.332C168.531 371.641 168.685 371.011 168.993 370.442C169.301 369.873 169.731 369.42 170.281 369.084C170.832 368.748 171.467 368.58 172.185 368.58C172.867 368.58 173.469 368.739 173.991 369.056C174.514 369.364 174.901 369.784 175.153 370.316L174.229 370.61C174.024 370.237 173.735 369.947 173.361 369.742C172.997 369.527 172.591 369.42 172.143 369.42C171.658 369.42 171.215 369.546 170.813 369.798C170.412 370.05 170.09 370.395 169.847 370.834C169.614 371.273 169.497 371.772 169.497 372.332C169.497 372.883 169.619 373.382 169.861 373.83C170.104 374.278 170.426 374.637 170.827 374.908C171.229 375.169 171.672 375.3 172.157 375.3C172.475 375.3 172.778 375.244 173.067 375.132C173.366 375.02 173.623 374.871 173.837 374.684C174.061 374.488 174.211 374.278 174.285 374.054L175.223 374.334C175.093 374.679 174.873 374.992 174.565 375.272C174.267 375.543 173.912 375.757 173.501 375.916C173.1 376.065 172.666 376.14 172.199 376.14ZM176.649 372.99V368.706H177.601V372.822C177.601 373.653 177.741 374.273 178.021 374.684C178.31 375.095 178.735 375.3 179.295 375.3C179.668 375.3 180.028 375.221 180.373 375.062C180.728 374.894 181.04 374.661 181.311 374.362C181.582 374.054 181.787 373.699 181.927 373.298V368.706H182.879V374.852C182.879 374.983 182.907 375.081 182.963 375.146C183.019 375.202 183.103 375.235 183.215 375.244V376C183.103 376.009 183.014 376.014 182.949 376.014C182.884 376.023 182.823 376.028 182.767 376.028C182.58 376.009 182.417 375.935 182.277 375.804C182.146 375.673 182.076 375.515 182.067 375.328L182.039 374.348C181.722 374.908 181.288 375.347 180.737 375.664C180.196 375.981 179.608 376.14 178.973 376.14C178.208 376.14 177.629 375.874 177.237 375.342C176.845 374.81 176.649 374.026 176.649 372.99ZM188.671 369.546C188.037 369.565 187.477 369.742 186.991 370.078C186.515 370.414 186.179 370.876 185.983 371.464V376H185.031V368.706H185.927V370.456C186.179 369.943 186.511 369.527 186.921 369.21C187.341 368.893 187.785 368.715 188.251 368.678C188.345 368.669 188.424 368.664 188.489 368.664C188.564 368.664 188.625 368.669 188.671 368.678V369.546ZM192.334 376.14C191.736 376.14 191.181 376.042 190.668 375.846C190.154 375.65 189.711 375.351 189.338 374.95L189.73 374.278C190.14 374.661 190.551 374.941 190.962 375.118C191.382 375.286 191.825 375.37 192.292 375.37C192.861 375.37 193.323 375.258 193.678 375.034C194.032 374.801 194.21 374.469 194.21 374.04C194.21 373.751 194.121 373.531 193.944 373.382C193.776 373.223 193.528 373.097 193.202 373.004C192.884 372.901 192.502 372.794 192.054 372.682C191.55 372.542 191.125 372.397 190.78 372.248C190.444 372.089 190.187 371.893 190.01 371.66C189.842 371.417 189.758 371.105 189.758 370.722C189.758 370.246 189.874 369.854 190.108 369.546C190.35 369.229 190.677 368.991 191.088 368.832C191.508 368.664 191.974 368.58 192.488 368.58C193.048 368.58 193.542 368.669 193.972 368.846C194.401 369.023 194.751 369.271 195.022 369.588L194.56 370.232C194.298 369.933 193.986 369.714 193.622 369.574C193.267 369.425 192.87 369.35 192.432 369.35C192.133 369.35 191.848 369.392 191.578 369.476C191.307 369.551 191.083 369.681 190.906 369.868C190.738 370.045 190.654 370.293 190.654 370.61C190.654 370.871 190.719 371.077 190.85 371.226C190.98 371.366 191.176 371.487 191.438 371.59C191.699 371.683 192.021 371.786 192.404 371.898C192.954 372.047 193.435 372.201 193.846 372.36C194.256 372.509 194.574 372.705 194.798 372.948C195.022 373.191 195.134 373.531 195.134 373.97C195.134 374.651 194.877 375.183 194.364 375.566C193.85 375.949 193.174 376.14 192.334 376.14ZM199.815 376.14C199.293 376.14 198.807 376.042 198.359 375.846C197.921 375.641 197.538 375.365 197.211 375.02C196.894 374.665 196.647 374.264 196.469 373.816C196.292 373.359 196.203 372.878 196.203 372.374C196.203 371.851 196.292 371.366 196.469 370.918C196.647 370.461 196.899 370.059 197.225 369.714C197.552 369.359 197.935 369.084 198.373 368.888C198.821 368.683 199.307 368.58 199.829 368.58C200.352 368.58 200.833 368.683 201.271 368.888C201.71 369.084 202.093 369.359 202.419 369.714C202.746 370.059 202.998 370.461 203.175 370.918C203.353 371.366 203.441 371.851 203.441 372.374C203.441 372.878 203.353 373.359 203.175 373.816C202.998 374.264 202.746 374.665 202.419 375.02C202.102 375.365 201.719 375.641 201.271 375.846C200.833 376.042 200.347 376.14 199.815 376.14ZM197.169 372.388C197.169 372.929 197.286 373.424 197.519 373.872C197.762 374.311 198.084 374.661 198.485 374.922C198.887 375.174 199.33 375.3 199.815 375.3C200.301 375.3 200.744 375.169 201.145 374.908C201.547 374.647 201.869 374.292 202.111 373.844C202.354 373.387 202.475 372.892 202.475 372.36C202.475 371.819 202.354 371.324 202.111 370.876C201.869 370.428 201.547 370.073 201.145 369.812C200.744 369.551 200.301 369.42 199.815 369.42C199.33 369.42 198.887 369.555 198.485 369.826C198.093 370.097 197.776 370.456 197.533 370.904C197.291 371.343 197.169 371.837 197.169 372.388ZM207.427 376.14C206.83 376.14 206.275 376.042 205.761 375.846C205.248 375.65 204.805 375.351 204.431 374.95L204.823 374.278C205.234 374.661 205.645 374.941 206.055 375.118C206.475 375.286 206.919 375.37 207.385 375.37C207.955 375.37 208.417 375.258 208.771 375.034C209.126 374.801 209.303 374.469 209.303 374.04C209.303 373.751 209.215 373.531 209.037 373.382C208.869 373.223 208.622 373.097 208.295 373.004C207.978 372.901 207.595 372.794 207.147 372.682C206.643 372.542 206.219 372.397 205.873 372.248C205.537 372.089 205.281 371.893 205.103 371.66C204.935 371.417 204.851 371.105 204.851 370.722C204.851 370.246 204.968 369.854 205.201 369.546C205.444 369.229 205.771 368.991 206.181 368.832C206.601 368.664 207.068 368.58 207.581 368.58C208.141 368.58 208.636 368.669 209.065 368.846C209.495 369.023 209.845 369.271 210.115 369.588L209.653 370.232C209.392 369.933 209.079 369.714 208.715 369.574C208.361 369.425 207.964 369.35 207.525 369.35C207.227 369.35 206.942 369.392 206.671 369.476C206.401 369.551 206.177 369.681 205.999 369.868C205.831 370.045 205.747 370.293 205.747 370.61C205.747 370.871 205.813 371.077 205.943 371.226C206.074 371.366 206.27 371.487 206.531 371.59C206.793 371.683 207.115 371.786 207.497 371.898C208.048 372.047 208.529 372.201 208.939 372.36C209.35 372.509 209.667 372.705 209.891 372.948C210.115 373.191 210.227 373.531 210.227 373.97C210.227 374.651 209.971 375.183 209.457 375.566C208.944 375.949 208.267 376.14 207.427 376.14ZM215.407 378.24C215.537 378.249 215.663 378.254 215.785 378.254C215.906 378.263 215.995 378.259 216.051 378.24C216.163 378.221 216.27 378.156 216.373 378.044C216.475 377.932 216.597 377.717 216.737 377.4C216.877 377.083 217.073 376.616 217.325 376L214.147 368.706H215.155L217.829 375.02L220.293 368.706H221.245L217.465 378.114C217.399 378.291 217.301 378.455 217.171 378.604C217.04 378.763 216.877 378.884 216.681 378.968C216.494 379.061 216.261 379.113 215.981 379.122C215.897 379.131 215.808 379.131 215.715 379.122C215.631 379.122 215.528 379.113 215.407 379.094V378.24ZM116.638 396.65C116.563 396.678 116.447 396.729 116.288 396.804C116.129 396.879 115.938 396.944 115.714 397C115.49 397.056 115.247 397.084 114.986 397.084C114.715 397.084 114.459 397.033 114.216 396.93C113.983 396.827 113.796 396.673 113.656 396.468C113.516 396.253 113.446 395.992 113.446 395.684V390.462H112.438V389.706H113.446V387.242H114.398V389.706H116.078V390.462H114.398V395.418C114.417 395.679 114.51 395.875 114.678 396.006C114.855 396.137 115.056 396.202 115.28 396.202C115.541 396.202 115.779 396.16 115.994 396.076C116.209 395.983 116.339 395.917 116.386 395.88L116.638 396.65ZM117.239 394.9C117.239 394.443 117.37 394.051 117.631 393.724C117.893 393.388 118.252 393.131 118.709 392.954C119.176 392.767 119.713 392.674 120.319 392.674C120.674 392.674 121.043 392.702 121.425 392.758C121.808 392.814 122.149 392.898 122.447 393.01V392.394C122.447 391.778 122.265 391.288 121.901 390.924C121.537 390.56 121.033 390.378 120.389 390.378C119.997 390.378 119.61 390.453 119.227 390.602C118.854 390.742 118.462 390.952 118.051 391.232L117.687 390.56C118.163 390.233 118.63 389.991 119.087 389.832C119.545 389.664 120.011 389.58 120.487 389.58C121.383 389.58 122.093 389.837 122.615 390.35C123.138 390.863 123.399 391.573 123.399 392.478V395.852C123.399 395.983 123.427 396.081 123.483 396.146C123.539 396.202 123.628 396.235 123.749 396.244V397C123.647 397.009 123.558 397.019 123.483 397.028C123.409 397.037 123.353 397.037 123.315 397.028C123.082 397.019 122.905 396.944 122.783 396.804C122.662 396.664 122.597 396.515 122.587 396.356L122.573 395.824C122.247 396.244 121.822 396.571 121.299 396.804C120.777 397.028 120.245 397.14 119.703 397.14C119.237 397.14 118.812 397.042 118.429 396.846C118.056 396.641 117.762 396.37 117.547 396.034C117.342 395.689 117.239 395.311 117.239 394.9ZM122.125 395.46C122.228 395.329 122.307 395.203 122.363 395.082C122.419 394.961 122.447 394.853 122.447 394.76V393.696C122.13 393.575 121.799 393.481 121.453 393.416C121.117 393.351 120.777 393.318 120.431 393.318C119.75 393.318 119.199 393.453 118.779 393.724C118.359 393.995 118.149 394.363 118.149 394.83C118.149 395.101 118.219 395.357 118.359 395.6C118.499 395.833 118.705 396.029 118.975 396.188C119.246 396.337 119.563 396.412 119.927 396.412C120.385 396.412 120.809 396.323 121.201 396.146C121.603 395.969 121.911 395.74 122.125 395.46ZM125.498 386.78H126.45V395.348C126.45 395.712 126.516 395.95 126.646 396.062C126.777 396.174 126.936 396.23 127.122 396.23C127.29 396.23 127.458 396.211 127.626 396.174C127.794 396.137 127.939 396.099 128.06 396.062L128.228 396.832C128.051 396.907 127.832 396.967 127.57 397.014C127.318 397.061 127.099 397.084 126.912 397.084C126.483 397.084 126.138 396.958 125.876 396.706C125.624 396.454 125.498 396.109 125.498 395.67V386.78ZM129.313 386.78H130.265V395.348C130.265 395.712 130.33 395.95 130.461 396.062C130.591 396.174 130.75 396.23 130.937 396.23C131.105 396.23 131.273 396.211 131.441 396.174C131.609 396.137 131.753 396.099 131.875 396.062L132.043 396.832C131.865 396.907 131.646 396.967 131.385 397.014C131.133 397.061 130.913 397.084 130.727 397.084C130.297 397.084 129.952 396.958 129.691 396.706C129.439 396.454 129.313 396.109 129.313 395.67V386.78ZM136.235 397.14C135.712 397.14 135.227 397.042 134.779 396.846C134.331 396.641 133.944 396.365 133.617 396.02C133.29 395.665 133.034 395.259 132.847 394.802C132.67 394.345 132.581 393.855 132.581 393.332C132.581 392.651 132.735 392.025 133.043 391.456C133.36 390.887 133.794 390.434 134.345 390.098C134.896 389.753 135.521 389.58 136.221 389.58C136.94 389.58 137.565 389.753 138.097 390.098C138.638 390.443 139.063 390.901 139.371 391.47C139.679 392.03 139.833 392.646 139.833 393.318C139.833 393.393 139.833 393.467 139.833 393.542C139.833 393.607 139.828 393.659 139.819 393.696H133.575C133.622 394.219 133.766 394.685 134.009 395.096C134.261 395.497 134.583 395.819 134.975 396.062C135.376 396.295 135.81 396.412 136.277 396.412C136.753 396.412 137.201 396.291 137.621 396.048C138.05 395.805 138.349 395.488 138.517 395.096L139.343 395.32C139.194 395.665 138.965 395.978 138.657 396.258C138.349 396.538 137.985 396.757 137.565 396.916C137.154 397.065 136.711 397.14 136.235 397.14ZM133.547 393.01H138.937C138.9 392.478 138.755 392.011 138.503 391.61C138.26 391.209 137.938 390.896 137.537 390.672C137.145 390.439 136.711 390.322 136.235 390.322C135.759 390.322 135.325 390.439 134.933 390.672C134.541 390.896 134.219 391.213 133.967 391.624C133.724 392.025 133.584 392.487 133.547 393.01ZM144.942 390.546C144.307 390.565 143.747 390.742 143.262 391.078C142.786 391.414 142.45 391.876 142.254 392.464V397H141.302V389.706H142.198V391.456C142.45 390.943 142.781 390.527 143.192 390.21C143.612 389.893 144.055 389.715 144.522 389.678C144.615 389.669 144.695 389.664 144.76 389.664C144.835 389.664 144.895 389.669 144.942 389.678V390.546ZM149.128 397.14C148.605 397.14 148.12 397.042 147.672 396.846C147.224 396.641 146.836 396.365 146.51 396.02C146.183 395.665 145.926 395.259 145.74 394.802C145.562 394.345 145.474 393.855 145.474 393.332C145.474 392.651 145.628 392.025 145.936 391.456C146.253 390.887 146.687 390.434 147.238 390.098C147.788 389.753 148.414 389.58 149.114 389.58C149.832 389.58 150.458 389.753 150.99 390.098C151.531 390.443 151.956 390.901 152.264 391.47C152.572 392.03 152.726 392.646 152.726 393.318C152.726 393.393 152.726 393.467 152.726 393.542C152.726 393.607 152.721 393.659 152.712 393.696H146.468C146.514 394.219 146.659 394.685 146.902 395.096C147.154 395.497 147.476 395.819 147.868 396.062C148.269 396.295 148.703 396.412 149.17 396.412C149.646 396.412 150.094 396.291 150.514 396.048C150.943 395.805 151.242 395.488 151.41 395.096L152.236 395.32C152.086 395.665 151.858 395.978 151.55 396.258C151.242 396.538 150.878 396.757 150.458 396.916C150.047 397.065 149.604 397.14 149.128 397.14ZM146.44 393.01H151.83C151.792 392.478 151.648 392.011 151.396 391.61C151.153 391.209 150.831 390.896 150.43 390.672C150.038 390.439 149.604 390.322 149.128 390.322C148.652 390.322 148.218 390.439 147.826 390.672C147.434 390.896 147.112 391.213 146.86 391.624C146.617 392.025 146.477 392.487 146.44 393.01ZM156.589 397.14C155.991 397.14 155.436 397.042 154.923 396.846C154.409 396.65 153.966 396.351 153.593 395.95L153.985 395.278C154.395 395.661 154.806 395.941 155.217 396.118C155.637 396.286 156.08 396.37 156.547 396.37C157.116 396.37 157.578 396.258 157.933 396.034C158.287 395.801 158.465 395.469 158.465 395.04C158.465 394.751 158.376 394.531 158.199 394.382C158.031 394.223 157.783 394.097 157.457 394.004C157.139 393.901 156.757 393.794 156.309 393.682C155.805 393.542 155.38 393.397 155.035 393.248C154.699 393.089 154.442 392.893 154.265 392.66C154.097 392.417 154.013 392.105 154.013 391.722C154.013 391.246 154.129 390.854 154.363 390.546C154.605 390.229 154.932 389.991 155.343 389.832C155.763 389.664 156.229 389.58 156.743 389.58C157.303 389.58 157.797 389.669 158.227 389.846C158.656 390.023 159.006 390.271 159.277 390.588L158.815 391.232C158.553 390.933 158.241 390.714 157.877 390.574C157.522 390.425 157.125 390.35 156.687 390.35C156.388 390.35 156.103 390.392 155.833 390.476C155.562 390.551 155.338 390.681 155.161 390.868C154.993 391.045 154.909 391.293 154.909 391.61C154.909 391.871 154.974 392.077 155.105 392.226C155.235 392.366 155.431 392.487 155.693 392.59C155.954 392.683 156.276 392.786 156.659 392.898C157.209 393.047 157.69 393.201 158.101 393.36C158.511 393.509 158.829 393.705 159.053 393.948C159.277 394.191 159.389 394.531 159.389 394.97C159.389 395.651 159.132 396.183 158.619 396.566C158.105 396.949 157.429 397.14 156.589 397.14Z" fill="#3D3D3D" fill-opacity="0.5"/>
</svg>
